<svg xmlns="http://www.w3.org/2000/svg" height="512" viewBox="0 0 128 128" width="512"><circle cx="64" cy="64" fill="#fdba12" r="64" data-name="Circle Grid"/><g transform="translate(3.206 -3.145)"><path d="M67.771 30a37.795 37.795 0 1 0 30.818 37.147m0 0A37.8 37.8 0 0 0 67.771 30M60.8 75.468a8.321 8.321 0 1 1 8.321-8.321 8.332 8.332 0 0 1-8.321 8.321z" fill="#dbd8dd"/><path d="M60.8 46.053a21.093 21.093 0 1 0 21.091 21.094A21.12 21.12 0 0 0 60.8 46.053Zm0 29.133a8.04 8.04 0 1 1 8.04-8.04 8.049 8.049 0 0 1-8.04 8.04z" fill="#62667c"/><path d="M60.8 51.752a15.394 15.394 0 1 0 15.392 15.395A15.414 15.414 0 0 0 60.8 51.752Zm0 22.24a6.846 6.846 0 1 1 6.846-6.846 6.854 6.854 0 0 1-6.846 6.846z" fill="#414451"/><path d="M34.727 47.648a1.345 1.345 0 1 1-1.349-1.34 1.348 1.348 0 0 1 1.349 1.34zM39.742 48.188a1.345 1.345 0 1 1-1.349-1.34 1.348 1.348 0 0 1 1.349 1.34zM44.758 48.729a1.345 1.345 0 1 1-1.349-1.34 1.348 1.348 0 0 1 1.349 1.34z" fill="#9a9eaf"/><circle cx="60.824" cy="55.922" fill="#eeefee" r="1.358"/><circle cx="50.198" cy="63.639" fill="#eeefee" r="1.358"/><circle cx="71.391" cy="63.639" fill="#eeefee" r="1.358"/><circle cx="67.48" cy="76.105" fill="#eeefee" r="1.358"/><circle cx="54.183" cy="76.105" fill="#eeefee" r="1.358"/><g fill="#9a9eaf"><path d="M29.977 56.657a1.345 1.345 0 1 1-1.7-.858 1.348 1.348 0 0 1 1.7.858zM34.914 55.621a1.345 1.345 0 1 1-1.7-.858 1.348 1.348 0 0 1 1.7.858zM39.851 54.585a1.345 1.345 0 1 1-1.7-.858 1.348 1.348 0 0 1 1.7.858z"/><circle cx="27.156" cy="67.487" r="1.345" transform="rotate(-36 27.15 67.462)"/><circle cx="31.531" cy="64.976" r="1.345" transform="rotate(-36 31.526 64.951)"/><circle cx="35.906" cy="62.465" r="1.345" transform="rotate(-36 35.9 62.44)"/><circle cx="28.907" cy="77.865" r="1.345" transform="rotate(-53.98 28.926 77.868)"/><circle cx="32.292" cy="74.125" r="1.345" transform="rotate(-53.98 32.31 74.127)"/><circle cx="35.678" cy="70.385" r="1.345" transform="rotate(-53.98 35.696 70.385)"/><path d="M34.194 85.912a1.345 1.345 0 1 1-1.692.869 1.348 1.348 0 0 1 1.692-.869zM36.258 81.309a1.345 1.345 0 1 1-1.692.869 1.348 1.348 0 0 1 1.692-.869zM38.322 76.706a1.345 1.345 0 1 1-1.692.869 1.348 1.348 0 0 1 1.692-.869zM41.295 93.213a1.345 1.345 0 1 1-1.34 1.349 1.348 1.348 0 0 1 1.34-1.349zM41.835 88.2a1.345 1.345 0 1 1-1.34 1.349 1.348 1.348 0 0 1 1.34-1.349zM42.375 83.182a1.345 1.345 0 1 1-1.34 1.349 1.348 1.348 0 0 1 1.34-1.349zM50.3 97.963a1.345 1.345 0 1 1-.858 1.7 1.348 1.348 0 0 1 .858-1.7zM49.268 93.026a1.345 1.345 0 1 1-.858 1.7 1.348 1.348 0 0 1 .858-1.7zM48.232 88.089a1.345 1.345 0 1 1-.858 1.7 1.348 1.348 0 0 1 .858-1.7z"/><circle cx="61.134" cy="100.785" r="1.345" transform="rotate(-36 61.122 100.745)"/><circle cx="58.623" cy="96.409" r="1.345" transform="rotate(-36 58.61 96.372)"/><circle cx="56.112" cy="92.034" r="1.345" transform="rotate(-36 56.1 91.999)"/><circle cx="71.512" cy="99.033" r="1.345" transform="rotate(-53.98 71.54 99.03)"/><circle cx="67.772" cy="95.648" r="1.345" transform="rotate(-53.98 67.8 95.646)"/><circle cx="64.031" cy="92.262" r="1.345" transform="rotate(-53.98 64.059 92.261)"/><path d="M79.559 93.746a1.345 1.345 0 1 1 .869 1.692 1.348 1.348 0 0 1-.869-1.692zM74.956 91.682a1.345 1.345 0 1 1 .869 1.692 1.348 1.348 0 0 1-.869-1.692zM70.353 89.618a1.345 1.345 0 1 1 .869 1.692 1.348 1.348 0 0 1-.869-1.692zM86.86 86.645a1.345 1.345 0 1 1 1.349 1.34 1.348 1.348 0 0 1-1.349-1.34zM81.845 86.1a1.345 1.345 0 1 1 1.349 1.34 1.348 1.348 0 0 1-1.349-1.34zM76.829 85.565a1.345 1.345 0 1 1 1.349 1.34 1.348 1.348 0 0 1-1.349-1.34zM91.61 77.636a1.345 1.345 0 1 1 1.7.858 1.348 1.348 0 0 1-1.7-.858zM86.673 78.672a1.345 1.345 0 1 1 1.7.858 1.348 1.348 0 0 1-1.7-.858zM81.736 79.708a1.345 1.345 0 1 1 1.7.858 1.348 1.348 0 0 1-1.7-.858z"/></g><circle cx="94.431" cy="66.806" fill="#62667c" r="1.345" transform="rotate(-36 94.404 66.776)"/><circle cx="90.056" cy="69.317" fill="#9a9eaf" r="1.345" transform="rotate(-36 90.03 69.287)"/><circle cx="85.681" cy="71.828" fill="#9a9eaf" r="1.345" transform="rotate(-36 85.658 71.797)"/><circle cx="92.68" cy="56.428" fill="#62667c" r="1.345" transform="rotate(-53.98 92.703 56.416)"/><circle cx="89.295" cy="60.168" fill="#9a9eaf" r="1.345" transform="rotate(-53.98 89.318 60.158)"/><circle cx="85.909" cy="63.909" fill="#9a9eaf" r="1.345" transform="rotate(-53.98 85.933 63.899)"/><path d="M87.393 48.381a1.345 1.345 0 1 1 1.692-.869 1.348 1.348 0 0 1-1.692.869z" fill="#62667c"/><path d="M85.329 52.984a1.345 1.345 0 1 1 1.692-.869 1.348 1.348 0 0 1-1.692.869zM83.265 57.587a1.345 1.345 0 1 1 1.692-.869 1.348 1.348 0 0 1-1.692.869z" fill="#9a9eaf"/><path d="M80.292 41.08a1.345 1.345 0 1 1 1.34-1.349 1.348 1.348 0 0 1-1.34 1.349z" fill="#62667c"/><path d="M79.752 46.1a1.345 1.345 0 1 1 1.34-1.349 1.348 1.348 0 0 1-1.34 1.349zM79.212 51.111a1.345 1.345 0 1 1 1.34-1.349 1.348 1.348 0 0 1-1.34 1.349z" fill="#9a9eaf"/><path d="M71.283 36.33a1.345 1.345 0 1 1 .858-1.7 1.348 1.348 0 0 1-.858 1.7z" fill="#62667c"/><path d="M72.319 41.267a1.345 1.345 0 1 1 .858-1.7 1.348 1.348 0 0 1-.858 1.7zM73.355 46.2a1.345 1.345 0 1 1 .858-1.7 1.348 1.348 0 0 1-.858 1.7z" fill="#9a9eaf"/><circle cx="60.453" cy="33.509" fill="#9a9eaf" r="1.345" transform="rotate(-36 60.435 33.492)"/><circle cx="62.964" cy="37.884" fill="#9a9eaf" r="1.345" transform="rotate(-36 62.946 37.867)"/><circle cx="65.475" cy="42.259" fill="#9a9eaf" r="1.345" transform="rotate(-36 65.456 42.24)"/><circle cx="50.075" cy="35.26" fill="#9a9eaf" r="1.345" transform="rotate(-53.98 50.09 35.254)"/><circle cx="53.815" cy="38.645" fill="#9a9eaf" r="1.345" transform="rotate(-53.98 53.83 38.64)"/><circle cx="57.556" cy="42.031" fill="#9a9eaf" r="1.345" transform="rotate(-53.98 57.571 42.024)"/><path d="M42.028 40.547a1.345 1.345 0 1 1-.869-1.692 1.348 1.348 0 0 1 .869 1.692zM46.631 42.611a1.345 1.345 0 1 1-.869-1.692 1.348 1.348 0 0 1 .869 1.692zM51.234 44.675a1.345 1.345 0 1 1-.869-1.692 1.348 1.348 0 0 1 .869 1.692z" fill="#9a9eaf"/><path d="M105 67.147v.662a2.842 2.842 0 0 1-2.237 2.778 2.447 2.447 0 0 1-.613.071h-7.123a2.849 2.849 0 0 1-2.849-2.849v-.662C92.177 50.791 79.6 37.32 65.186 35.9a2.835 2.835 0 0 1-2.529-2.828v-7.157a2.817 2.817 0 0 1 .064-.606 2.86 2.86 0 0 1 3.042-2.237C86.963 24.789 105 43.9 105 67.147Z" fill="#da364c"/><path d="M102.834 69.312v.662a2.447 2.447 0 0 1-.071.613 2.447 2.447 0 0 1-.613.071h-7.123a2.849 2.849 0 0 1-2.849-2.849v-.662C92.177 50.791 79.6 37.32 65.186 35.9a2.835 2.835 0 0 1-2.529-2.828v-7.157a2.817 2.817 0 0 1 .064-.606 2.739 2.739 0 0 1 .876-.071c21.203 1.717 39.237 20.837 39.237 44.074z" fill="#ef5261"/></g></svg>